<?xml version="1.0" encoding="ISO-8859-1"?>
<!DOCTYPE svg PUBLIC "-//W3C//DTD SVG 1.0//EN" "http://www.w3.org/TR/2001/REC-SVG-20010904/DTD/svg10.dtd">
<!-- generated by Grace-5.1.25 -->
<svg xml:space="preserve" width="11.6944in" height="8.2639in" viewBox="0.0000 0.0000 842.0000 595.0000">
 <g transform="translate(0,595.0000) scale(1,-1)">
  <g style="fill:#FFFFFF; fill-rule:nonzero">
   <path  d="M0.0000,0.0000L0.0000,595.0000L842.0000,595.0000L842.0000,0.0000z"/>
  </g>
  <g style="fill:#000000; fill-rule:nonzero">
   <path  d="M151.7250,100.6542L147.2625,96.1917L151.7250,91.7292L156.1875,96.1917z"/>
  </g>
  <g style="fill:none; stroke:#000000; stroke-width:  0.8925; stroke-linecap:butt; stroke-linejoin:miter; stroke-dasharray:none">
   <path d="M151.7250,100.6542L147.2625,96.1917L151.7250,91.7292L156.1875,96.1917z"/>
  </g>
  <g style="fill:#000000; fill-rule:nonzero">
   <path  d="M151.7250,204.7792L147.2625,200.3167L151.7250,195.8542L156.1875,200.3167z"/>
  </g>
  <g style="fill:none; stroke:#000000; stroke-width:  0.8925; stroke-linecap:butt; stroke-linejoin:miter; stroke-dasharray:none">
   <path d="M151.7250,204.7792L147.2625,200.3167L151.7250,195.8542L156.1875,200.3167z"/>
  </g>
  <g style="fill:#000000; fill-rule:nonzero">
   <path  d="M151.7250,204.7792L147.2625,200.3167L151.7250,195.8542L156.1875,200.3167z"/>
  </g>
  <g style="fill:none; stroke:#000000; stroke-width:  0.8925; stroke-linecap:butt; stroke-linejoin:miter; stroke-dasharray:none">
   <path d="M151.7250,204.7792L147.2625,200.3167L151.7250,195.8542L156.1875,200.3167z"/>
  </g>
  <g style="fill:#000000; fill-rule:nonzero">
   <path  d="M157.6750,100.6542L153.2125,96.1917L157.6750,91.7292L162.1375,96.1917z"/>
  </g>
  <g style="fill:none; stroke:#000000; stroke-width:  0.8925; stroke-linecap:butt; stroke-linejoin:miter; stroke-dasharray:none">
   <path d="M157.6750,100.6542L153.2125,96.1917L157.6750,91.7292L162.1375,96.1917z"/>
  </g>
  <g style="fill:#000000; fill-rule:nonzero">
   <path  d="M157.6750,124.2558L153.2125,119.7933L157.6750,115.3308L162.1375,119.7933z"/>
  </g>
  <g style="fill:none; stroke:#000000; stroke-width:  0.8925; stroke-linecap:butt; stroke-linejoin:miter; stroke-dasharray:none">
   <path d="M157.6750,124.2558L153.2125,119.7933L157.6750,115.3308L162.1375,119.7933z"/>
  </g>
  <g style="fill:#000000; fill-rule:nonzero">
   <path  d="M157.6750,156.1875L153.2125,151.7250L157.6750,147.2625L162.1375,151.7250z"/>
  </g>
  <g style="fill:none; stroke:#000000; stroke-width:  0.8925; stroke-linecap:butt; stroke-linejoin:miter; stroke-dasharray:none">
   <path d="M157.6750,156.1875L153.2125,151.7250L157.6750,147.2625L162.1375,151.7250z"/>
  </g>
  <g style="fill:#000000; fill-rule:nonzero">
   <path  d="M163.6250,156.1875L159.1625,151.7250L163.6250,147.2625L168.0875,151.7250z"/>
  </g>
  <g style="fill:none; stroke:#000000; stroke-width:  0.8925; stroke-linecap:butt; stroke-linejoin:miter; stroke-dasharray:none">
   <path d="M163.6250,156.1875L159.1625,151.7250L163.6250,147.2625L168.0875,151.7250z"/>
  </g>
  <g style="fill:#000000; fill-rule:nonzero">
   <path  d="M181.4750,156.1875L177.0125,151.7250L181.4750,147.2625L185.9375,151.7250z"/>
  </g>
  <g style="fill:none; stroke:#000000; stroke-width:  0.8925; stroke-linecap:butt; stroke-linejoin:miter; stroke-dasharray:none">
   <path d="M181.4750,156.1875L177.0125,151.7250L181.4750,147.2625L185.9375,151.7250z"/>
  </g>
  <g style="fill:#000000; fill-rule:nonzero">
   <path  d="M199.3250,189.5075L194.8625,185.0450L199.3250,180.5825L203.7875,185.0450z"/>
  </g>
  <g style="fill:none; stroke:#000000; stroke-width:  0.8925; stroke-linecap:butt; stroke-linejoin:miter; stroke-dasharray:none">
   <path d="M199.3250,189.5075L194.8625,185.0450L199.3250,180.5825L203.7875,185.0450z"/>
  </g>
  <g style="fill:#000000; fill-rule:nonzero">
   <path  d="M199.3250,189.5075L194.8625,185.0450L199.3250,180.5825L203.7875,185.0450z"/>
  </g>
  <g style="fill:none; stroke:#000000; stroke-width:  0.8925; stroke-linecap:butt; stroke-linejoin:miter; stroke-dasharray:none">
   <path d="M199.3250,189.5075L194.8625,185.0450L199.3250,180.5825L203.7875,185.0450z"/>
  </g>
  <g style="fill:#000000; fill-rule:nonzero">
   <path  d="M199.3250,189.5075L194.8625,185.0450L199.3250,180.5825L203.7875,185.0450z"/>
  </g>
  <g style="fill:none; stroke:#000000; stroke-width:  0.8925; stroke-linecap:butt; stroke-linejoin:miter; stroke-dasharray:none">
   <path d="M199.3250,189.5075L194.8625,185.0450L199.3250,180.5825L203.7875,185.0450z"/>
  </g>
  <g style="fill:#000000; fill-rule:nonzero">
   <path  d="M199.3250,229.7692L194.8625,225.3067L199.3250,220.8442L203.7875,225.3067z"/>
  </g>
  <g style="fill:none; stroke:#000000; stroke-width:  0.8925; stroke-linecap:butt; stroke-linejoin:miter; stroke-dasharray:none">
   <path d="M199.3250,229.7692L194.8625,225.3067L199.3250,220.8442L203.7875,225.3067z"/>
  </g>
  <g style="fill:#000000; fill-rule:nonzero">
   <path  d="M205.2750,189.5075L200.8125,185.0450L205.2750,180.5825L209.7375,185.0450z"/>
  </g>
  <g style="fill:none; stroke:#000000; stroke-width:  0.8925; stroke-linecap:butt; stroke-linejoin:miter; stroke-dasharray:none">
   <path d="M205.2750,189.5075L200.8125,185.0450L205.2750,180.5825L209.7375,185.0450z"/>
  </g>
  <g style="fill:#000000; fill-rule:nonzero">
   <path  d="M229.0750,170.0708L224.6125,165.6083L229.0750,161.1458L233.5375,165.6083z"/>
  </g>
  <g style="fill:none; stroke:#000000; stroke-width:  0.8925; stroke-linecap:butt; stroke-linejoin:miter; stroke-dasharray:none">
   <path d="M229.0750,170.0708L224.6125,165.6083L229.0750,161.1458L233.5375,165.6083z"/>
  </g>
  <g style="fill:#000000; fill-rule:nonzero">
   <path  d="M229.0750,181.1775L224.6125,176.7150L229.0750,172.2525L233.5375,176.7150z"/>
  </g>
  <g style="fill:none; stroke:#000000; stroke-width:  0.8925; stroke-linecap:butt; stroke-linejoin:miter; stroke-dasharray:none">
   <path d="M229.0750,181.1775L224.6125,176.7150L229.0750,172.2525L233.5375,176.7150z"/>
  </g>
  <g style="fill:#000000; fill-rule:nonzero">
   <path  d="M229.0750,197.8375L224.6125,193.3750L229.0750,188.9125L233.5375,193.3750z"/>
  </g>
  <g style="fill:none; stroke:#000000; stroke-width:  0.8925; stroke-linecap:butt; stroke-linejoin:miter; stroke-dasharray:none">
   <path d="M229.0750,197.8375L224.6125,193.3750L229.0750,188.9125L233.5375,193.3750z"/>
  </g>
  <g style="fill:#000000; fill-rule:nonzero">
   <path  d="M229.0750,213.1092L224.6125,208.6467L229.0750,204.1842L233.5375,208.6467z"/>
  </g>
  <g style="fill:none; stroke:#000000; stroke-width:  0.8925; stroke-linecap:butt; stroke-linejoin:miter; stroke-dasharray:none">
   <path d="M229.0750,213.1092L224.6125,208.6467L229.0750,204.1842L233.5375,208.6467z"/>
  </g>
  <g style="fill:#000000; fill-rule:nonzero">
   <path  d="M246.9250,152.0225L242.4625,147.5600L246.9250,143.0975L251.3875,147.5600z"/>
  </g>
  <g style="fill:none; stroke:#000000; stroke-width:  0.8925; stroke-linecap:butt; stroke-linejoin:miter; stroke-dasharray:none">
   <path d="M246.9250,152.0225L242.4625,147.5600L246.9250,143.0975L251.3875,147.5600z"/>
  </g>
  <g style="fill:#000000; fill-rule:nonzero">
   <path  d="M246.9250,195.0608L242.4625,190.5983L246.9250,186.1358L251.3875,190.5983z"/>
  </g>
  <g style="fill:none; stroke:#000000; stroke-width:  0.8925; stroke-linecap:butt; stroke-linejoin:miter; stroke-dasharray:none">
   <path d="M246.9250,195.0608L242.4625,190.5983L246.9250,186.1358L251.3875,190.5983z"/>
  </g>
  <g style="fill:#000000; fill-rule:nonzero">
   <path  d="M264.7750,211.7208L260.3125,207.2583L264.7750,202.7958L269.2375,207.2583z"/>
  </g>
  <g style="fill:none; stroke:#000000; stroke-width:  0.8925; stroke-linecap:butt; stroke-linejoin:miter; stroke-dasharray:none">
   <path d="M264.7750,211.7208L260.3125,207.2583L264.7750,202.7958L269.2375,207.2583z"/>
  </g>
  <g style="fill:#000000; fill-rule:nonzero">
   <path  d="M288.5750,175.6242L284.1125,171.1617L288.5750,166.6992L293.0375,171.1617z"/>
  </g>
  <g style="fill:none; stroke:#000000; stroke-width:  0.8925; stroke-linecap:butt; stroke-linejoin:miter; stroke-dasharray:none">
   <path d="M288.5750,175.6242L284.1125,171.1617L288.5750,166.6992L293.0375,171.1617z"/>
  </g>
  <g style="fill:#000000; fill-rule:nonzero">
   <path  d="M288.5750,211.7208L284.1125,207.2583L288.5750,202.7958L293.0375,207.2583z"/>
  </g>
  <g style="fill:none; stroke:#000000; stroke-width:  0.8925; stroke-linecap:butt; stroke-linejoin:miter; stroke-dasharray:none">
   <path d="M288.5750,211.7208L284.1125,207.2583L288.5750,202.7958L293.0375,207.2583z"/>
  </g>
  <g style="fill:#000000; fill-rule:nonzero">
   <path  d="M324.2750,195.0608L319.8125,190.5983L324.2750,186.1358L328.7375,190.5983z"/>
  </g>
  <g style="fill:none; stroke:#000000; stroke-width:  0.8925; stroke-linecap:butt; stroke-linejoin:miter; stroke-dasharray:none">
   <path d="M324.2750,195.0608L319.8125,190.5983L324.2750,186.1358L328.7375,190.5983z"/>
  </g>
  <g style="fill:#000000; fill-rule:nonzero">
   <path  d="M324.2750,195.0608L319.8125,190.5983L324.2750,186.1358L328.7375,190.5983z"/>
  </g>
  <g style="fill:none; stroke:#000000; stroke-width:  0.8925; stroke-linecap:butt; stroke-linejoin:miter; stroke-dasharray:none">
   <path d="M324.2750,195.0608L319.8125,190.5983L324.2750,186.1358L328.7375,190.5983z"/>
  </g>
  <g style="fill:#000000; fill-rule:nonzero">
   <path  d="M330.2250,195.0608L325.7625,190.5983L330.2250,186.1358L334.6875,190.5983z"/>
  </g>
  <g style="fill:none; stroke:#000000; stroke-width:  0.8925; stroke-linecap:butt; stroke-linejoin:miter; stroke-dasharray:none">
   <path d="M330.2250,195.0608L325.7625,190.5983L330.2250,186.1358L334.6875,190.5983z"/>
  </g>
  <g style="fill:#000000; fill-rule:nonzero">
   <path  d="M336.1750,240.8758L331.7125,236.4133L336.1750,231.9508L340.6375,236.4133z"/>
  </g>
  <g style="fill:none; stroke:#000000; stroke-width:  0.8925; stroke-linecap:butt; stroke-linejoin:miter; stroke-dasharray:none">
   <path d="M336.1750,240.8758L331.7125,236.4133L336.1750,231.9508L340.6375,236.4133z"/>
  </g>
  <g style="fill:#000000; fill-rule:nonzero">
   <path  d="M348.0750,258.9242L343.6125,254.4617L348.0750,249.9992L352.5375,254.4617z"/>
  </g>
  <g style="fill:none; stroke:#000000; stroke-width:  0.8925; stroke-linecap:butt; stroke-linejoin:miter; stroke-dasharray:none">
   <path d="M348.0750,258.9242L343.6125,254.4617L348.0750,249.9992L352.5375,254.4617z"/>
  </g>
  <g style="fill:#000000; fill-rule:nonzero">
   <path  d="M354.0250,207.5558L349.5625,203.0933L354.0250,198.6308L358.4875,203.0933z"/>
  </g>
  <g style="fill:none; stroke:#000000; stroke-width:  0.8925; stroke-linecap:butt; stroke-linejoin:miter; stroke-dasharray:none">
   <path d="M354.0250,207.5558L349.5625,203.0933L354.0250,198.6308L358.4875,203.0933z"/>
  </g>
  <g style="fill:#000000; fill-rule:nonzero">
   <path  d="M359.9750,168.6825L355.5125,164.2200L359.9750,159.7575L364.4375,164.2200z"/>
  </g>
  <g style="fill:none; stroke:#000000; stroke-width:  0.8925; stroke-linecap:butt; stroke-linejoin:miter; stroke-dasharray:none">
   <path d="M359.9750,168.6825L355.5125,164.2200L359.9750,159.7575L364.4375,164.2200z"/>
  </g>
  <g style="fill:#000000; fill-rule:nonzero">
   <path  d="M359.9750,238.0992L355.5125,233.6367L359.9750,229.1742L364.4375,233.6367z"/>
  </g>
  <g style="fill:none; stroke:#000000; stroke-width:  0.8925; stroke-linecap:butt; stroke-linejoin:miter; stroke-dasharray:none">
   <path d="M359.9750,238.0992L355.5125,233.6367L359.9750,229.1742L364.4375,233.6367z"/>
  </g>
  <g style="fill:#000000; fill-rule:nonzero">
   <path  d="M365.9250,300.5742L361.4625,296.1117L365.9250,291.6492L370.3875,296.1117z"/>
  </g>
  <g style="fill:none; stroke:#000000; stroke-width:  0.8925; stroke-linecap:butt; stroke-linejoin:miter; stroke-dasharray:none">
   <path d="M365.9250,300.5742L361.4625,296.1117L365.9250,291.6492L370.3875,296.1117z"/>
  </g>
  <g style="fill:#000000; fill-rule:nonzero">
   <path  d="M371.8750,225.6042L367.4125,221.1417L371.8750,216.6792L376.3375,221.1417z"/>
  </g>
  <g style="fill:none; stroke:#000000; stroke-width:  0.8925; stroke-linecap:butt; stroke-linejoin:miter; stroke-dasharray:none">
   <path d="M371.8750,225.6042L367.4125,221.1417L371.8750,216.6792L376.3375,221.1417z"/>
  </g>
  <g style="fill:#000000; fill-rule:nonzero">
   <path  d="M377.8250,225.6042L373.3625,221.1417L377.8250,216.6792L382.2875,221.1417z"/>
  </g>
  <g style="fill:none; stroke:#000000; stroke-width:  0.8925; stroke-linecap:butt; stroke-linejoin:miter; stroke-dasharray:none">
   <path d="M377.8250,225.6042L373.3625,221.1417L377.8250,216.6792L382.2875,221.1417z"/>
  </g>
  <g style="fill:#000000; fill-rule:nonzero">
   <path  d="M383.7750,245.0408L379.3125,240.5783L383.7750,236.1158L388.2375,240.5783z"/>
  </g>
  <g style="fill:none; stroke:#000000; stroke-width:  0.8925; stroke-linecap:butt; stroke-linejoin:miter; stroke-dasharray:none">
   <path d="M383.7750,245.0408L379.3125,240.5783L383.7750,236.1158L388.2375,240.5783z"/>
  </g>
  <g style="fill:#000000; fill-rule:nonzero">
   <path  d="M383.7750,245.0408L379.3125,240.5783L383.7750,236.1158L388.2375,240.5783z"/>
  </g>
  <g style="fill:none; stroke:#000000; stroke-width:  0.8925; stroke-linecap:butt; stroke-linejoin:miter; stroke-dasharray:none">
   <path d="M383.7750,245.0408L379.3125,240.5783L383.7750,236.1158L388.2375,240.5783z"/>
  </g>
  <g style="fill:#000000; fill-rule:nonzero">
   <path  d="M383.7750,245.0408L379.3125,240.5783L383.7750,236.1158L388.2375,240.5783z"/>
  </g>
  <g style="fill:none; stroke:#000000; stroke-width:  0.8925; stroke-linecap:butt; stroke-linejoin:miter; stroke-dasharray:none">
   <path d="M383.7750,245.0408L379.3125,240.5783L383.7750,236.1158L388.2375,240.5783z"/>
  </g>
  <g style="fill:#000000; fill-rule:nonzero">
   <path  d="M383.7750,270.0308L379.3125,265.5683L383.7750,261.1058L388.2375,265.5683z"/>
  </g>
  <g style="fill:none; stroke:#000000; stroke-width:  0.8925; stroke-linecap:butt; stroke-linejoin:miter; stroke-dasharray:none">
   <path d="M383.7750,270.0308L379.3125,265.5683L383.7750,261.1058L388.2375,265.5683z"/>
  </g>
  <g style="fill:#000000; fill-rule:nonzero">
   <path  d="M383.7750,356.1075L379.3125,351.6450L383.7750,347.1825L388.2375,351.6450z"/>
  </g>
  <g style="fill:none; stroke:#000000; stroke-width:  0.8925; stroke-linecap:butt; stroke-linejoin:miter; stroke-dasharray:none">
   <path d="M383.7750,356.1075L379.3125,351.6450L383.7750,347.1825L388.2375,351.6450z"/>
  </g>
  <g style="fill:#000000; fill-rule:nonzero">
   <path  d="M395.6750,356.1075L391.2125,351.6450L395.6750,347.1825L400.1375,351.6450z"/>
  </g>
  <g style="fill:none; stroke:#000000; stroke-width:  0.8925; stroke-linecap:butt; stroke-linejoin:miter; stroke-dasharray:none">
   <path d="M395.6750,356.1075L391.2125,351.6450L395.6750,347.1825L400.1375,351.6450z"/>
  </g>
  <g style="fill:#000000; fill-rule:nonzero">
   <path  d="M395.6750,383.8742L391.2125,379.4117L395.6750,374.9492L400.1375,379.4117z"/>
  </g>
  <g style="fill:none; stroke:#000000; stroke-width:  0.8925; stroke-linecap:butt; stroke-linejoin:miter; stroke-dasharray:none">
   <path d="M395.6750,383.8742L391.2125,379.4117L395.6750,374.9492L400.1375,379.4117z"/>
  </g>
  <g style="fill:#000000; fill-rule:nonzero">
   <path  d="M401.6250,363.0492L397.1625,358.5867L401.6250,354.1242L406.0875,358.5867z"/>
  </g>
  <g style="fill:none; stroke:#000000; stroke-width:  0.8925; stroke-linecap:butt; stroke-linejoin:miter; stroke-dasharray:none">
   <path d="M401.6250,363.0492L397.1625,358.5867L401.6250,354.1242L406.0875,358.5867z"/>
  </g>
  <g style="fill:#000000; fill-rule:nonzero">
   <path  d="M407.5750,328.3408L403.1125,323.8783L407.5750,319.4158L412.0375,323.8783z"/>
  </g>
  <g style="fill:none; stroke:#000000; stroke-width:  0.8925; stroke-linecap:butt; stroke-linejoin:miter; stroke-dasharray:none">
   <path d="M407.5750,328.3408L403.1125,323.8783L407.5750,319.4158L412.0375,323.8783z"/>
  </g>
  <g style="fill:#000000; fill-rule:nonzero">
   <path  d="M407.5750,356.1075L403.1125,351.6450L407.5750,347.1825L412.0375,351.6450z"/>
  </g>
  <g style="fill:none; stroke:#000000; stroke-width:  0.8925; stroke-linecap:butt; stroke-linejoin:miter; stroke-dasharray:none">
   <path d="M407.5750,356.1075L403.1125,351.6450L407.5750,347.1825L412.0375,351.6450z"/>
  </g>
  <g style="fill:#000000; fill-rule:nonzero">
   <path  d="M407.5750,356.1075L403.1125,351.6450L407.5750,347.1825L412.0375,351.6450z"/>
  </g>
  <g style="fill:none; stroke:#000000; stroke-width:  0.8925; stroke-linecap:butt; stroke-linejoin:miter; stroke-dasharray:none">
   <path d="M407.5750,356.1075L403.1125,351.6450L407.5750,347.1825L412.0375,351.6450z"/>
  </g>
  <g style="fill:#000000; fill-rule:nonzero">
   <path  d="M413.5250,293.6325L409.0625,289.1700L413.5250,284.7075L417.9875,289.1700z"/>
  </g>
  <g style="fill:none; stroke:#000000; stroke-width:  0.8925; stroke-linecap:butt; stroke-linejoin:miter; stroke-dasharray:none">
   <path d="M413.5250,293.6325L409.0625,289.1700L413.5250,284.7075L417.9875,289.1700z"/>
  </g>
  <g style="fill:#000000; fill-rule:nonzero">
   <path  d="M419.4750,239.4875L415.0125,235.0250L419.4750,230.5625L423.9375,235.0250z"/>
  </g>
  <g style="fill:none; stroke:#000000; stroke-width:  0.8925; stroke-linecap:butt; stroke-linejoin:miter; stroke-dasharray:none">
   <path d="M419.4750,239.4875L415.0125,235.0250L419.4750,230.5625L423.9375,235.0250z"/>
  </g>
  <g style="fill:#000000; fill-rule:nonzero">
   <path  d="M419.4750,293.6325L415.0125,289.1700L419.4750,284.7075L423.9375,289.1700z"/>
  </g>
  <g style="fill:none; stroke:#000000; stroke-width:  0.8925; stroke-linecap:butt; stroke-linejoin:miter; stroke-dasharray:none">
   <path d="M419.4750,293.6325L415.0125,289.1700L419.4750,284.7075L423.9375,289.1700z"/>
  </g>
  <g style="fill:#000000; fill-rule:nonzero">
   <path  d="M419.4750,293.6325L415.0125,289.1700L419.4750,284.7075L423.9375,289.1700z"/>
  </g>
  <g style="fill:none; stroke:#000000; stroke-width:  0.8925; stroke-linecap:butt; stroke-linejoin:miter; stroke-dasharray:none">
   <path d="M419.4750,293.6325L415.0125,289.1700L419.4750,284.7075L423.9375,289.1700z"/>
  </g>
  <g style="fill:#000000; fill-rule:nonzero">
   <path  d="M425.4250,268.6425L420.9625,264.1800L425.4250,259.7175L429.8875,264.1800z"/>
  </g>
  <g style="fill:none; stroke:#000000; stroke-width:  0.8925; stroke-linecap:butt; stroke-linejoin:miter; stroke-dasharray:none">
   <path d="M425.4250,268.6425L420.9625,264.1800L425.4250,259.7175L429.8875,264.1800z"/>
  </g>
  <g style="fill:#000000; fill-rule:nonzero">
   <path  d="M431.3750,264.4775L426.9125,260.0150L431.3750,255.5525L435.8375,260.0150z"/>
  </g>
  <g style="fill:none; stroke:#000000; stroke-width:  0.8925; stroke-linecap:butt; stroke-linejoin:miter; stroke-dasharray:none">
   <path d="M431.3750,264.4775L426.9125,260.0150L431.3750,255.5525L435.8375,260.0150z"/>
  </g>
  <g style="fill:#000000; fill-rule:nonzero">
   <path  d="M443.2750,264.4775L438.8125,260.0150L443.2750,255.5525L447.7375,260.0150z"/>
  </g>
  <g style="fill:none; stroke:#000000; stroke-width:  0.8925; stroke-linecap:butt; stroke-linejoin:miter; stroke-dasharray:none">
   <path d="M443.2750,264.4775L438.8125,260.0150L443.2750,255.5525L447.7375,260.0150z"/>
  </g>
  <g style="fill:#000000; fill-rule:nonzero">
   <path  d="M443.2750,264.4775L438.8125,260.0150L443.2750,255.5525L447.7375,260.0150z"/>
  </g>
  <g style="fill:none; stroke:#000000; stroke-width:  0.8925; stroke-linecap:butt; stroke-linejoin:miter; stroke-dasharray:none">
   <path d="M443.2750,264.4775L438.8125,260.0150L443.2750,255.5525L447.7375,260.0150z"/>
  </g>
  <g style="fill:#000000; fill-rule:nonzero">
   <path  d="M455.1750,263.0892L450.7125,258.6267L455.1750,254.1642L459.6375,258.6267z"/>
  </g>
  <g style="fill:none; stroke:#000000; stroke-width:  0.8925; stroke-linecap:butt; stroke-linejoin:miter; stroke-dasharray:none">
   <path d="M455.1750,263.0892L450.7125,258.6267L455.1750,254.1642L459.6375,258.6267z"/>
  </g>
  <g style="fill:#000000; fill-rule:nonzero">
   <path  d="M461.1250,221.4392L456.6625,216.9767L461.1250,212.5142L465.5875,216.9767z"/>
  </g>
  <g style="fill:none; stroke:#000000; stroke-width:  0.8925; stroke-linecap:butt; stroke-linejoin:miter; stroke-dasharray:none">
   <path d="M461.1250,221.4392L456.6625,216.9767L461.1250,212.5142L465.5875,216.9767z"/>
  </g>
  <g style="fill:#000000; fill-rule:nonzero">
   <path  d="M478.9750,217.2742L474.5125,212.8117L478.9750,208.3492L483.4375,212.8117z"/>
  </g>
  <g style="fill:none; stroke:#000000; stroke-width:  0.8925; stroke-linecap:butt; stroke-linejoin:miter; stroke-dasharray:none">
   <path d="M478.9750,217.2742L474.5125,212.8117L478.9750,208.3492L483.4375,212.8117z"/>
  </g>
  <g style="fill:#000000; fill-rule:nonzero">
   <path  d="M478.9750,217.2742L474.5125,212.8117L478.9750,208.3492L483.4375,212.8117z"/>
  </g>
  <g style="fill:none; stroke:#000000; stroke-width:  0.8925; stroke-linecap:butt; stroke-linejoin:miter; stroke-dasharray:none">
   <path d="M478.9750,217.2742L474.5125,212.8117L478.9750,208.3492L483.4375,212.8117z"/>
  </g>
  <g style="fill:#000000; fill-rule:nonzero">
   <path  d="M478.9750,218.6625L474.5125,214.2000L478.9750,209.7375L483.4375,214.2000z"/>
  </g>
  <g style="fill:none; stroke:#000000; stroke-width:  0.8925; stroke-linecap:butt; stroke-linejoin:miter; stroke-dasharray:none">
   <path d="M478.9750,218.6625L474.5125,214.2000L478.9750,209.7375L483.4375,214.2000z"/>
  </g>
  <g style="fill:#000000; fill-rule:nonzero">
   <path  d="M478.9750,253.3708L474.5125,248.9083L478.9750,244.4458L483.4375,248.9083z"/>
  </g>
  <g style="fill:none; stroke:#000000; stroke-width:  0.8925; stroke-linecap:butt; stroke-linejoin:miter; stroke-dasharray:none">
   <path d="M478.9750,253.3708L474.5125,248.9083L478.9750,244.4458L483.4375,248.9083z"/>
  </g>
  <g style="fill:#000000; fill-rule:nonzero">
   <path  d="M484.9250,171.4592L480.4625,166.9967L484.9250,162.5342L489.3875,166.9967z"/>
  </g>
  <g style="fill:none; stroke:#000000; stroke-width:  0.8925; stroke-linecap:butt; stroke-linejoin:miter; stroke-dasharray:none">
   <path d="M484.9250,171.4592L480.4625,166.9967L484.9250,162.5342L489.3875,166.9967z"/>
  </g>
  <g style="fill:#000000; fill-rule:nonzero">
   <path  d="M490.8750,177.0125L486.4125,172.5500L490.8750,168.0875L495.3375,172.5500z"/>
  </g>
  <g style="fill:none; stroke:#000000; stroke-width:  0.8925; stroke-linecap:butt; stroke-linejoin:miter; stroke-dasharray:none">
   <path d="M490.8750,177.0125L486.4125,172.5500L490.8750,168.0875L495.3375,172.5500z"/>
  </g>
  <g style="fill:#000000; fill-rule:nonzero">
   <path  d="M490.8750,240.8758L486.4125,236.4133L490.8750,231.9508L495.3375,236.4133z"/>
  </g>
  <g style="fill:none; stroke:#000000; stroke-width:  0.8925; stroke-linecap:butt; stroke-linejoin:miter; stroke-dasharray:none">
   <path d="M490.8750,240.8758L486.4125,236.4133L490.8750,231.9508L495.3375,236.4133z"/>
  </g>
  <g style="fill:#000000; fill-rule:nonzero">
   <path  d="M490.8750,240.8758L486.4125,236.4133L490.8750,231.9508L495.3375,236.4133z"/>
  </g>
  <g style="fill:none; stroke:#000000; stroke-width:  0.8925; stroke-linecap:butt; stroke-linejoin:miter; stroke-dasharray:none">
   <path d="M490.8750,240.8758L486.4125,236.4133L490.8750,231.9508L495.3375,236.4133z"/>
  </g>
  <g style="fill:#000000; fill-rule:nonzero">
   <path  d="M502.7750,245.0408L498.3125,240.5783L502.7750,236.1158L507.2375,240.5783z"/>
  </g>
  <g style="fill:none; stroke:#000000; stroke-width:  0.8925; stroke-linecap:butt; stroke-linejoin:miter; stroke-dasharray:none">
   <path d="M502.7750,245.0408L498.3125,240.5783L502.7750,236.1158L507.2375,240.5783z"/>
  </g>
  <g style="fill:#000000; fill-rule:nonzero">
   <path  d="M502.7750,245.0408L498.3125,240.5783L502.7750,236.1158L507.2375,240.5783z"/>
  </g>
  <g style="fill:none; stroke:#000000; stroke-width:  0.8925; stroke-linecap:butt; stroke-linejoin:miter; stroke-dasharray:none">
   <path d="M502.7750,245.0408L498.3125,240.5783L502.7750,236.1158L507.2375,240.5783z"/>
  </g>
  <g style="fill:#000000; fill-rule:nonzero">
   <path  d="M502.7750,254.7592L498.3125,250.2967L502.7750,245.8342L507.2375,250.2967z"/>
  </g>
  <g style="fill:none; stroke:#000000; stroke-width:  0.8925; stroke-linecap:butt; stroke-linejoin:miter; stroke-dasharray:none">
   <path d="M502.7750,254.7592L498.3125,250.2967L502.7750,245.8342L507.2375,250.2967z"/>
  </g>
  <g style="fill:#000000; fill-rule:nonzero">
   <path  d="M508.7250,235.3225L504.2625,230.8600L508.7250,226.3975L513.1875,230.8600z"/>
  </g>
  <g style="fill:none; stroke:#000000; stroke-width:  0.8925; stroke-linecap:butt; stroke-linejoin:miter; stroke-dasharray:none">
   <path d="M508.7250,235.3225L504.2625,230.8600L508.7250,226.3975L513.1875,230.8600z"/>
  </g>
  <g style="fill:#000000; fill-rule:nonzero">
   <path  d="M508.7250,267.2542L504.2625,262.7917L508.7250,258.3292L513.1875,262.7917z"/>
  </g>
  <g style="fill:none; stroke:#000000; stroke-width:  0.8925; stroke-linecap:butt; stroke-linejoin:miter; stroke-dasharray:none">
   <path d="M508.7250,267.2542L504.2625,262.7917L508.7250,258.3292L513.1875,262.7917z"/>
  </g>
  <g style="fill:#000000; fill-rule:nonzero">
   <path  d="M538.4750,225.6042L534.0125,221.1417L538.4750,216.6792L542.9375,221.1417z"/>
  </g>
  <g style="fill:none; stroke:#000000; stroke-width:  0.8925; stroke-linecap:butt; stroke-linejoin:miter; stroke-dasharray:none">
   <path d="M538.4750,225.6042L534.0125,221.1417L538.4750,216.6792L542.9375,221.1417z"/>
  </g>
  <g style="fill:#000000; fill-rule:nonzero">
   <path  d="M556.3250,250.5942L551.8625,246.1317L556.3250,241.6692L560.7875,246.1317z"/>
  </g>
  <g style="fill:none; stroke:#000000; stroke-width:  0.8925; stroke-linecap:butt; stroke-linejoin:miter; stroke-dasharray:none">
   <path d="M556.3250,250.5942L551.8625,246.1317L556.3250,241.6692L560.7875,246.1317z"/>
  </g>
  <g style="fill:#000000; fill-rule:nonzero">
   <path  d="M562.2750,239.4875L557.8125,235.0250L562.2750,230.5625L566.7375,235.0250z"/>
  </g>
  <g style="fill:none; stroke:#000000; stroke-width:  0.8925; stroke-linecap:butt; stroke-linejoin:miter; stroke-dasharray:none">
   <path d="M562.2750,239.4875L557.8125,235.0250L562.2750,230.5625L566.7375,235.0250z"/>
  </g>
  <g style="fill:#000000; fill-rule:nonzero">
   <path  d="M574.1750,351.9425L569.7125,347.4800L574.1750,343.0175L578.6375,347.4800z"/>
  </g>
  <g style="fill:none; stroke:#000000; stroke-width:  0.8925; stroke-linecap:butt; stroke-linejoin:miter; stroke-dasharray:none">
   <path d="M574.1750,351.9425L569.7125,347.4800L574.1750,343.0175L578.6375,347.4800z"/>
  </g>
  <g style="fill:#000000; fill-rule:nonzero">
   <path  d="M597.9750,351.9425L593.5125,347.4800L597.9750,343.0175L602.4375,347.4800z"/>
  </g>
  <g style="fill:none; stroke:#000000; stroke-width:  0.8925; stroke-linecap:butt; stroke-linejoin:miter; stroke-dasharray:none">
   <path d="M597.9750,351.9425L593.5125,347.4800L597.9750,343.0175L602.4375,347.4800z"/>
  </g>
  <g style="fill:#000000; fill-rule:nonzero">
   <path  d="M609.8750,351.9425L605.4125,347.4800L609.8750,343.0175L614.3375,347.4800z"/>
  </g>
  <g style="fill:none; stroke:#000000; stroke-width:  0.8925; stroke-linecap:butt; stroke-linejoin:miter; stroke-dasharray:none">
   <path d="M609.8750,351.9425L605.4125,347.4800L609.8750,343.0175L614.3375,347.4800z"/>
  </g>
  <g style="fill:#000000; fill-rule:nonzero">
   <path  d="M609.8750,365.8258L605.4125,361.3633L609.8750,356.9008L614.3375,361.3633z"/>
  </g>
  <g style="fill:none; stroke:#000000; stroke-width:  0.8925; stroke-linecap:butt; stroke-linejoin:miter; stroke-dasharray:none">
   <path d="M609.8750,365.8258L605.4125,361.3633L609.8750,356.9008L614.3375,361.3633z"/>
  </g>
  <g style="fill:#000000; fill-rule:nonzero">
   <path  d="M615.8250,365.8258L611.3625,361.3633L615.8250,356.9008L620.2875,361.3633z"/>
  </g>
  <g style="fill:none; stroke:#000000; stroke-width:  0.8925; stroke-linecap:butt; stroke-linejoin:miter; stroke-dasharray:none">
   <path d="M615.8250,365.8258L611.3625,361.3633L615.8250,356.9008L620.2875,361.3633z"/>
  </g>
  <g style="fill:#000000; fill-rule:nonzero">
   <path  d="M621.7750,357.4958L617.3125,353.0333L621.7750,348.5708L626.2375,353.0333z"/>
  </g>
  <g style="fill:none; stroke:#000000; stroke-width:  0.8925; stroke-linecap:butt; stroke-linejoin:miter; stroke-dasharray:none">
   <path d="M621.7750,357.4958L617.3125,353.0333L621.7750,348.5708L626.2375,353.0333z"/>
  </g>
  <g style="fill:#000000; fill-rule:nonzero">
   <path  d="M639.6250,357.4958L635.1625,353.0333L639.6250,348.5708L644.0875,353.0333z"/>
  </g>
  <g style="fill:none; stroke:#000000; stroke-width:  0.8925; stroke-linecap:butt; stroke-linejoin:miter; stroke-dasharray:none">
   <path d="M639.6250,357.4958L635.1625,353.0333L639.6250,348.5708L644.0875,353.0333z"/>
  </g>
  <g style="fill:#000000; fill-rule:nonzero">
   <path  d="M639.6250,364.4375L635.1625,359.9750L639.6250,355.5125L644.0875,359.9750z"/>
  </g>
  <g style="fill:none; stroke:#000000; stroke-width:  0.8925; stroke-linecap:butt; stroke-linejoin:miter; stroke-dasharray:none">
   <path d="M639.6250,364.4375L635.1625,359.9750L639.6250,355.5125L644.0875,359.9750z"/>
   <path d="M89.2500,89.2500L684.2500,89.2500"/>
   <path d="M89.2500,505.7500L684.2500,505.7500"/>
   <path d="M148.7500,89.2500L148.7500,95.2000"/>
   <path d="M148.7500,505.7500L148.7500,499.8000"/>
   <path d="M267.7500,89.2500L267.7500,95.2000"/>
   <path d="M267.7500,505.7500L267.7500,499.8000"/>
   <path d="M386.7500,89.2500L386.7500,95.2000"/>
   <path d="M386.7500,505.7500L386.7500,499.8000"/>
   <path d="M505.7500,89.2500L505.7500,95.2000"/>
   <path d="M505.7500,505.7500L505.7500,499.8000"/>
   <path d="M624.7500,89.2500L624.7500,95.2000"/>
   <path d="M624.7500,505.7500L624.7500,499.8000"/>
   <path d="M89.2500,89.2500L89.2500,101.1500"/>
   <path d="M89.2500,505.7500L89.2500,493.8500"/>
   <path d="M208.2500,89.2500L208.2500,101.1500"/>
   <path d="M208.2500,505.7500L208.2500,493.8500"/>
   <path d="M327.2500,89.2500L327.2500,101.1500"/>
   <path d="M327.2500,505.7500L327.2500,493.8500"/>
   <path d="M446.2500,89.2500L446.2500,101.1500"/>
   <path d="M446.2500,505.7500L446.2500,493.8500"/>
   <path d="M565.2500,89.2500L565.2500,101.1500"/>
   <path d="M565.2500,505.7500L565.2500,493.8500"/>
   <path d="M684.2500,89.2500L684.2500,101.1500"/>
   <path d="M684.2500,505.7500L684.2500,493.8500"/>
  </g>
  <g style="fill:#000000; fill-rule:nonzero">
   <text   style="font-family:'Times','Nimbus Roman No9 L'; font-style:normal; font-weight:normal; font-size:595.0000" transform="matrix(0.0242,0.0140,0.0140,-0.0242,58.7500,36.3000)">2021-10-13</text>
   <text   style="font-family:'Times','Nimbus Roman No9 L'; font-style:normal; font-weight:normal; font-size:595.0000" transform="matrix(0.0242,0.0140,0.0140,-0.0242,177.2500,36.3000)">2021-11-02</text>
   <text   style="font-family:'Times','Nimbus Roman No9 L'; font-style:normal; font-weight:normal; font-size:595.0000" transform="matrix(0.0242,0.0140,0.0140,-0.0242,296.2500,36.3000)">2021-11-22</text>
   <text   style="font-family:'Times','Nimbus Roman No9 L'; font-style:normal; font-weight:normal; font-size:595.0000" transform="matrix(0.0242,0.0140,0.0140,-0.0242,415.2500,36.3000)">2021-12-12</text>
   <text   style="font-family:'Times','Nimbus Roman No9 L'; font-style:normal; font-weight:normal; font-size:595.0000" transform="matrix(0.0242,0.0140,0.0140,-0.0242,534.2500,36.3000)">2022-01-01</text>
   <text   style="font-family:'Times','Nimbus Roman No9 L'; font-style:normal; font-weight:normal; font-size:595.0000" transform="matrix(0.0242,0.0140,0.0140,-0.0242,653.2500,36.3000)">2022-01-21</text>
   <text   style="font-family:'Times','Nimbus Roman No9 L'; font-style:normal; font-weight:normal; font-size:595.0000" transform="matrix(0.0280,0.0000,-0.0000,-0.0280,373.2500,19.3500)">date</text>
  </g>
  <g style="fill:none; stroke:#000000; stroke-width:  0.8925; stroke-linecap:butt; stroke-linejoin:miter; stroke-dasharray:none">
   <path d="M89.2500,89.2500L89.2500,505.7500"/>
   <path d="M684.2500,89.2500L684.2500,505.7500"/>
   <path d="M89.2500,123.9583L95.2000,123.9583"/>
   <path d="M684.2500,123.9583L678.3000,123.9583"/>
   <path d="M89.2500,193.3750L95.2000,193.3750"/>
   <path d="M684.2500,193.3750L678.3000,193.3750"/>
   <path d="M89.2500,262.7917L95.2000,262.7917"/>
   <path d="M684.2500,262.7917L678.3000,262.7917"/>
   <path d="M89.2500,332.2083L95.2000,332.2083"/>
   <path d="M684.2500,332.2083L678.3000,332.2083"/>
   <path d="M89.2500,401.6250L95.2000,401.6250"/>
   <path d="M684.2500,401.6250L678.3000,401.6250"/>
   <path d="M89.2500,471.0417L95.2000,471.0417"/>
   <path d="M684.2500,471.0417L678.3000,471.0417"/>
   <path d="M89.2500,89.2500L101.1500,89.2500"/>
   <path d="M684.2500,89.2500L672.3500,89.2500"/>
   <path d="M89.2500,158.6667L101.1500,158.6667"/>
   <path d="M684.2500,158.6667L672.3500,158.6667"/>
   <path d="M89.2500,228.0833L101.1500,228.0833"/>
   <path d="M684.2500,228.0833L672.3500,228.0833"/>
   <path d="M89.2500,297.5000L101.1500,297.5000"/>
   <path d="M684.2500,297.5000L672.3500,297.5000"/>
   <path d="M89.2500,366.9167L101.1500,366.9167"/>
   <path d="M684.2500,366.9167L672.3500,366.9167"/>
   <path d="M89.2500,436.3333L101.1500,436.3333"/>
   <path d="M684.2500,436.3333L672.3500,436.3333"/>
   <path d="M89.2500,505.7500L101.1500,505.7500"/>
   <path d="M684.2500,505.7500L672.3500,505.7500"/>
  </g>
  <g style="fill:#000000; fill-rule:nonzero">
   <text   style="font-family:'Times','Nimbus Roman No9 L'; font-style:normal; font-weight:normal; font-size:595.0000" transform="matrix(0.0280,0.0000,-0.0000,-0.0280,50.3000,83.7500)">2200</text>
   <text   style="font-family:'Times','Nimbus Roman No9 L'; font-style:normal; font-weight:normal; font-size:595.0000" transform="matrix(0.0280,0.0000,-0.0000,-0.0280,50.3000,153.1667)">2250</text>
   <text   style="font-family:'Times','Nimbus Roman No9 L'; font-style:normal; font-weight:normal; font-size:595.0000" transform="matrix(0.0280,0.0000,-0.0000,-0.0280,50.3000,222.5833)">2300</text>
   <text   style="font-family:'Times','Nimbus Roman No9 L'; font-style:normal; font-weight:normal; font-size:595.0000" transform="matrix(0.0280,0.0000,-0.0000,-0.0280,50.3000,292.0000)">2350</text>
   <text   style="font-family:'Times','Nimbus Roman No9 L'; font-style:normal; font-weight:normal; font-size:595.0000" transform="matrix(0.0280,0.0000,-0.0000,-0.0280,50.3000,361.4167)">2400</text>
   <text   style="font-family:'Times','Nimbus Roman No9 L'; font-style:normal; font-weight:normal; font-size:595.0000" transform="matrix(0.0280,0.0000,-0.0000,-0.0280,50.3000,430.8333)">2450</text>
   <text   style="font-family:'Times','Nimbus Roman No9 L'; font-style:normal; font-weight:normal; font-size:595.0000" transform="matrix(0.0280,0.0000,-0.0000,-0.0280,50.3000,500.2500)">2500</text>
   <text   style="font-family:'Times','Nimbus Roman No9 L'; font-style:normal; font-weight:normal; font-size:595.0000" transform="matrix(0.0000,0.0280,0.0280,-0.0000,44.3500,226.0000)"># of best mates found</text>
  </g>
  <g style="fill:none; stroke:#000000; stroke-width:  0.8925; stroke-linecap:butt; stroke-linejoin:miter; stroke-dasharray:none">
   <path d="M89.2500,89.2500L89.2500,505.7500L684.2500,505.7500L684.2500,89.2500z"/>
  </g>
  <g style="fill:#000000; fill-rule:nonzero">
   <text   style="font-family:'Times','Nimbus Roman No9 L'; font-style:normal; font-weight:normal; font-size:595.0000" transform="matrix(0.0420,0.0000,-0.0000,-0.0420,172.2500,546.4500)">Evolution of SF mate finding effectiveness</text>
   <text   style="font-family:'Times','Nimbus Roman No9 L'; font-style:normal; font-weight:normal; font-size:595.0000" transform="matrix(0.0280,0.0000,-0.0000,-0.0280,137.7500,521.6500)">Best mates found with 1M nodes per position on ChestUCI_23102018.epd</text>
  </g>
 </g>
</svg>
